<svg version="1.1" id="Layer_1" xmlns="http://www.w3.org/2000/svg" xmlns:xlink="http://www.w3.org/1999/xlink" x="0px" y="0px"
	 width="100%" viewBox="0 0 500 500" enable-background="new 0 0 500 500" xml:space="preserve">
<path fill="#08363C" opacity="1.000000" stroke="none" 
	d="
M276.000000,501.000000 
	C259.645782,501.000000 243.291550,501.000000 226.346176,500.629883 
	C224.737579,499.817535 223.756699,499.135345 222.696457,498.973755 
	C217.451706,498.174347 212.163864,497.646149 206.931320,496.779999 
	C178.215668,492.026520 151.253342,482.031677 126.278976,467.388885 
	C102.263702,453.308411 80.507751,436.202362 62.279308,414.771820 
	C44.449608,393.810059 30.070534,370.895142 19.699295,345.422913 
	C11.381983,324.995148 5.745560,303.881073 2.966350,281.993408 
	C2.831263,280.929535 1.678733,279.994843 0.999996,279.000000 
	C1.000000,260.312439 1.000000,241.624878 1.367772,222.358551 
	C2.828681,216.686249 4.079877,211.620773 4.989347,206.494644 
	C10.957520,172.855682 23.463472,141.805008 42.255165,113.345100 
	C54.830376,94.300034 69.695663,77.197372 87.121559,62.337811 
	C102.198021,49.481674 118.326256,38.246712 135.900833,29.080437 
	C160.399292,16.302912 186.332321,8.011428 213.628525,3.823608 
	C216.495926,3.383687 219.213120,1.964735 222.000000,1.000002 
	C226.689255,1.000000 231.378510,1.000000 236.891998,1.207441 
	C246.810822,1.276589 255.905411,1.138294 265.000000,1.000000 
	C269.689240,1.000000 274.378510,1.000000 279.642609,1.368512 
	C280.897980,2.144706 281.543823,2.829739 282.264069,2.919883 
	C305.971985,5.887015 328.707947,12.242429 350.660248,21.712114 
	C377.663452,33.360622 401.818481,49.398331 422.828979,69.749084 
	C434.101288,80.667458 444.265747,92.923737 453.719971,105.486946 
	C477.658691,137.297775 491.720703,173.398193 498.050598,212.618713 
	C498.619843,216.145935 499.997711,219.542664 501.000000,223.000000 
	C501.000000,241.020889 501.000000,259.041779 500.628845,277.642456 
	C499.831787,279.071350 499.121704,279.888367 499.021698,280.774261 
	C496.661041,301.689911 491.398773,321.873718 483.910767,341.513245 
	C472.760895,370.757080 456.317200,396.839630 435.327606,419.848419 
	C421.559052,434.941528 405.857758,448.020081 388.589569,459.225983 
	C357.419525,479.453247 323.757751,492.811920 286.912872,498.072021 
	C283.211365,498.600464 279.634644,500.003113 276.000000,501.000000 
M364.608643,352.300537 
	C364.364990,352.525543 364.174347,352.788940 364.021301,353.031128 
	C364.021301,353.031128 364.071259,353.067047 363.441498,353.295471 
	C360.724823,355.152985 358.173218,357.340668 355.256775,358.798676 
	C349.349182,361.751984 344.013489,358.977539 342.614197,352.560272 
	C342.272888,350.995117 341.958923,349.423981 341.877838,347.292206 
	C341.949951,346.900635 342.022095,346.509064 342.482147,346.146027 
	C342.606293,345.910065 342.730469,345.674133 342.854645,345.438141 
	C342.559692,345.614899 342.264771,345.791656 341.263214,345.910980 
	C334.050812,351.331238 335.006165,357.133606 344.381439,362.758240 
	C350.978729,366.687317 363.106628,362.069244 365.032410,356.046021 
	C365.032410,356.046021 365.094788,356.054688 365.811615,355.960266 
	C366.783112,354.553467 367.754608,353.146698 368.752502,351.833740 
	C368.752502,351.833740 368.657715,351.856384 369.143585,351.489044 
	C369.398651,350.952545 369.653717,350.416046 369.931732,349.944275 
	C369.931732,349.944275 369.864197,349.956757 370.297791,349.559967 
	C370.526642,349.030792 370.755493,348.501617 371.008026,347.997284 
	C371.008026,347.997284 370.974060,347.995972 371.371643,347.574158 
	C371.577454,347.042450 371.783264,346.510712 372.003601,345.996979 
	C372.003601,345.996979 371.983154,345.991180 372.643616,345.778015 
	C373.510437,344.489075 374.525848,343.274323 375.213928,341.896179 
	C376.776459,338.766754 378.381775,338.165924 380.298004,342.251526 
	C379.573395,345.156616 378.848785,348.061676 378.378082,351.543060 
	C381.350891,354.059937 381.562195,351.826508 381.755493,349.245422 
	C381.755493,349.245422 381.952393,348.980743 382.520630,348.549011 
	C383.297058,346.246277 384.073486,343.943542 384.925568,341.290619 
	C384.925568,341.290619 385.180725,341.039093 385.772247,340.917908 
	C387.588806,340.449310 388.645355,340.043610 388.409271,343.030609 
	C388.132233,346.535828 387.162415,351.199097 393.773865,351.977173 
	C394.855377,351.974701 395.936890,351.972260 397.402161,352.074615 
	C397.601196,351.373993 397.800262,350.673340 398.042480,349.491089 
	C398.042480,349.491089 398.014923,349.008301 398.036285,348.591705 
	C398.036285,348.591705 398.046356,348.174683 398.565155,348.157410 
	C399.465942,347.851196 400.366760,347.545013 401.925293,347.262115 
	C403.676117,348.481506 405.426910,349.700928 407.588715,350.965271 
	C407.588715,350.965271 407.971466,351.121582 408.460785,351.389343 
	C409.241089,351.121735 410.021423,350.854156 410.781769,350.584167 
	C410.781769,350.584167 410.772919,350.560364 411.499847,350.450653 
	C413.673218,350.628632 415.846588,350.806641 418.001617,351.003265 
	C418.001617,351.003265 418.005280,350.979065 418.465820,351.308655 
	C419.317322,351.135956 420.168823,350.963257 421.337463,350.248169 
	C421.502686,345.443359 421.667938,340.638519 421.843658,335.528778 
	C421.043213,336.193390 419.997009,337.062012 418.609528,338.322571 
	C418.460358,338.633301 418.311188,338.944031 418.182190,339.269287 
	C418.182190,339.269287 418.187347,339.294128 417.460419,339.184357 
	C416.562622,337.951660 415.663269,336.720062 414.767548,335.485870 
	C414.011810,334.444550 413.260254,333.400269 412.506866,332.357300 
	C408.376190,336.694702 403.848511,335.927094 399.174133,333.409332 
	C399.067200,333.351715 398.861816,333.506866 398.699341,333.517883 
	C395.656647,333.724701 392.616180,334.018921 389.569855,334.104950 
	C384.474792,334.248840 379.365356,334.102173 374.286713,334.444611 
	C373.135956,334.522186 372.086578,336.102783 370.999756,337.000000 
	C370.999756,337.000000 370.990814,336.991180 370.376892,337.238647 
	C369.578491,338.760834 368.780121,340.283051 367.604828,342.009583 
	C367.604828,342.009583 367.185211,342.097504 366.452728,342.218048 
	C363.216675,342.231598 359.980621,342.245148 356.746216,342.224060 
	C356.746216,342.224060 356.720581,342.200684 356.819305,341.460419 
	C356.332733,339.639557 355.846191,337.818665 355.252380,335.217865 
	C356.104919,331.260071 356.957489,327.302277 357.837067,323.218964 
	C352.960419,326.787476 350.694275,333.046173 351.391632,341.884094 
	C351.628296,342.244873 351.864929,342.605652 352.501404,343.218109 
	C352.716675,343.454620 352.876984,343.723846 353.269379,344.423248 
	C353.493347,344.671021 353.761536,344.854034 354.015686,344.992737 
	C354.015686,344.992737 354.031250,344.932953 354.346130,345.571686 
	C357.124695,346.303162 359.949524,346.899323 362.661316,347.826141 
	C363.918030,348.255646 364.954651,349.329132 366.063446,350.048187 
	C366.063446,350.048187 366.129700,350.031555 365.704773,350.429199 
	C365.469421,350.951050 365.234070,351.472931 365.001221,352.000000 
	C365.001221,352.000000 364.995270,352.000122 364.608643,352.300537 
M273.240997,153.929047 
	C273.188049,154.274124 273.135071,154.619217 272.851379,155.260422 
	C272.851379,155.260422 272.854095,155.635834 272.344147,156.134460 
	C271.909302,157.292847 271.474426,158.451248 270.763275,160.345688 
	C274.369751,159.216904 278.643250,162.850113 280.438812,156.510818 
	C283.207184,149.935226 285.852753,143.304367 288.778503,136.799561 
	C291.716156,130.268265 295.572052,124.598373 303.267181,122.821320 
	C304.211670,122.603203 304.809357,120.883148 305.986176,119.294144 
	C292.626404,119.294144 280.561737,119.294144 268.497101,119.294144 
	C268.283417,119.812035 268.069733,120.329933 267.856018,120.847824 
	C269.351318,121.613892 270.769592,122.653358 272.354858,123.099869 
	C280.255615,125.325226 282.382996,128.914856 279.903076,136.711105 
	C278.398163,141.442337 276.566681,146.069687 274.377045,151.208725 
	C274.074829,152.078857 273.772583,152.948990 273.680969,153.790161 
	C273.680969,153.790161 273.647034,153.580322 273.240997,153.929047 
M122.002678,346.999207 
	C122.002678,346.999207 121.988640,346.996429 122.598793,346.692017 
	C123.063751,345.457489 123.528702,344.222961 124.001221,343.000000 
	C124.001221,343.000000 123.989990,342.995239 124.746445,343.022614 
	C125.887634,343.453857 127.028816,343.885132 128.182785,344.674438 
	C128.182785,344.674438 127.992157,344.977844 127.463058,345.414337 
	C126.218063,347.604523 124.973068,349.794708 123.728073,351.984894 
	C123.961800,352.260345 124.195526,352.535828 124.429260,352.811279 
	C125.793762,352.117126 127.158264,351.422943 129.255569,350.922699 
	C130.838654,350.272095 132.421738,349.621490 134.552567,349.138763 
	C135.777893,349.692749 137.003204,350.246735 138.242676,350.825287 
	C138.242676,350.825287 138.228439,350.824463 138.427078,351.402771 
	C142.009155,351.244568 145.591217,351.086365 149.589966,350.963226 
	C149.589966,350.963226 149.973114,351.130676 150.526840,351.417694 
	C154.389297,351.688080 158.258118,352.243652 162.112625,352.157654 
	C167.089874,352.046539 168.943024,347.984863 166.114227,343.143372 
	C166.423187,342.237091 166.494598,341.114563 167.085800,340.465271 
	C168.829987,338.549774 170.906982,336.436920 168.210373,334.252197 
	C165.603897,332.140564 162.656311,332.338440 160.131271,335.727997 
	C155.782806,333.360870 151.449631,331.698029 147.022232,335.631805 
	C146.603439,336.003906 145.762405,335.900787 144.719711,335.457214 
	C142.882660,336.035553 141.045593,336.613861 138.583176,336.822632 
	C137.024612,336.239929 135.466049,335.657227 133.456665,334.952606 
	C133.456665,334.952606 132.998718,334.861053 132.890625,334.606842 
	C132.594864,334.693359 132.299103,334.779846 131.298126,334.962769 
	C130.227158,335.338959 129.156174,335.715118 127.505554,335.707947 
	C124.907501,333.814941 122.240196,330.968842 120.108742,336.227264 
	C120.108742,336.227264 120.151840,336.251556 119.308937,336.167999 
	C118.180458,336.158447 117.051971,336.148926 115.946594,336.114105 
	C115.946594,336.114105 115.922897,336.110138 115.772362,335.437561 
	C114.725677,334.725006 113.678993,334.012451 112.213707,333.377258 
	C111.927788,333.399506 111.646072,333.374451 110.560699,333.204681 
	C107.719879,332.990936 106.968353,334.611694 107.173180,337.131866 
	C107.173180,337.131866 107.111908,337.150177 106.447739,337.328491 
	C103.026978,340.243988 100.205734,343.320435 103.837341,348.660217 
	C103.961670,349.082733 104.085991,349.505219 103.667030,350.152863 
	C103.795532,350.986237 103.924034,351.819580 104.052536,352.652924 
	C105.706017,352.142517 107.359489,351.632111 109.589813,350.861572 
	C109.988388,350.726349 110.386963,350.591125 111.160988,350.810425 
	C113.146492,350.822632 115.131989,350.834839 117.059036,350.872681 
	C117.059036,350.872681 117.088875,350.815643 117.479523,351.300751 
	C119.651222,353.046448 120.787346,352.512360 120.928413,349.351135 
	C120.928413,349.351135 121.128914,349.013489 121.460091,348.560577 
	C121.637794,348.035706 121.815498,347.510803 122.002678,346.999207 
M226.853363,314.152618 
	C226.853363,314.152618 226.792419,314.264557 226.596603,313.554382 
	C225.546112,312.474030 224.495621,311.393707 222.841797,310.280334 
	C220.011414,311.048920 217.181030,311.817505 214.210449,312.624146 
	C210.541580,323.724243 206.818680,334.987793 203.095779,346.251312 
	C202.689117,346.064056 202.282455,345.876801 201.834595,345.670563 
	C204.022766,343.381073 206.113678,341.193359 208.508911,338.693359 
	C208.697723,338.468658 208.846481,338.219971 208.909882,337.919037 
	C208.909882,337.919037 208.939209,337.873810 209.738129,337.930969 
	C211.292633,338.373993 212.824463,338.946289 214.407974,339.223816 
	C216.001053,339.503052 218.078217,340.171265 219.183044,339.470459 
	C222.034012,337.662109 223.597336,338.467804 226.028809,340.466187 
	C229.039429,342.940521 228.384567,344.784088 226.982269,347.604523 
	C226.428970,348.717377 227.565720,350.670532 227.932892,352.241028 
	C229.098206,351.663696 230.263519,351.086365 231.448044,350.457611 
	C231.448044,350.457611 231.499344,350.477600 232.112274,350.495575 
	C232.335495,349.612488 232.558716,348.729431 232.855988,347.158356 
	C233.285812,346.105347 233.715637,345.052368 234.450500,343.579132 
	C234.599701,343.267822 234.748901,342.956512 235.035690,341.993134 
	C236.295670,340.294952 237.216934,337.799957 239.984634,340.517151 
	C238.977661,342.878204 238.235367,345.200531 241.159531,347.586029 
	C241.268768,347.976959 241.377991,348.367920 241.063583,349.206665 
	C241.383286,350.116852 241.702988,351.027069 242.878021,351.956665 
	C251.129974,352.172516 252.339813,353.007843 253.154465,359.077850 
	C253.154465,359.077850 253.207138,359.027954 252.712982,359.584595 
	C252.140076,362.055176 251.567169,364.525787 250.928055,367.044922 
	C250.928055,367.044922 251.003662,367.005646 251.866882,366.997864 
	C252.366379,366.994995 252.866455,367.007080 253.365265,366.987061 
	C260.599854,366.696960 261.021027,366.039398 258.437195,359.646667 
	C257.950165,358.441681 257.939911,357.044006 257.643341,355.761963 
	C257.643341,355.761963 257.617554,355.695251 258.393921,355.601898 
	C259.146576,354.137024 259.899231,352.672119 261.147797,351.186249 
	C261.147797,351.186249 261.427399,351.596375 262.178894,351.668274 
	C263.088196,351.325836 263.997528,350.983368 264.875366,350.843994 
	C264.875366,350.843994 264.672699,350.809906 265.379791,350.742004 
	C266.560638,349.802216 267.741486,348.862427 269.185974,347.357208 
	C269.990234,346.181793 270.794495,345.006378 272.140778,344.151733 
	C272.917572,345.111511 273.694397,346.071289 274.627289,347.732269 
	C274.781677,348.433563 274.936035,349.134827 275.393097,350.269196 
	C275.673462,350.481750 275.953827,350.694336 276.055054,350.931885 
	C276.055054,350.931885 276.031219,350.752625 276.640869,351.232086 
	C282.559174,352.589813 284.256012,351.804626 285.418762,346.525696 
	C283.301880,347.319977 281.550232,347.977264 279.526581,348.657349 
	C279.526581,348.657349 279.386261,348.423248 279.611328,347.557251 
	C279.752777,346.077423 279.894226,344.597595 280.657928,342.947479 
	C281.407990,342.561310 282.158051,342.175140 283.394958,342.141266 
	C286.181854,341.451874 288.968750,340.762482 291.729614,340.803467 
	C291.164978,344.243164 290.600342,347.682831 290.564301,351.381226 
	C291.316589,350.729553 292.068878,350.077881 292.762756,349.206207 
	C292.762756,349.206207 292.931824,349.053772 293.480774,348.597046 
	C294.242004,346.323639 295.003204,344.050201 295.793945,341.772308 
	C295.793945,341.772308 295.768341,341.751892 296.466736,341.676422 
	C297.973999,341.259064 299.481293,340.841736 301.088013,340.396851 
	C301.614380,349.484772 301.614380,349.484772 303.666626,350.901611 
	C303.666626,350.901611 303.988922,351.070190 304.461517,351.359406 
	C305.305084,351.223572 306.148682,351.087738 307.347412,350.529388 
	C307.547699,350.040466 307.748016,349.551544 308.806458,349.022827 
	C310.243439,349.026154 311.680389,349.029480 313.239105,349.242432 
	C313.239105,349.242432 313.069702,349.415802 313.379242,349.976105 
	C313.669800,350.282684 313.960327,350.589233 314.986023,350.967377 
	C316.306763,350.639648 317.627533,350.311890 318.741089,350.035583 
	C314.753601,344.578156 319.236237,340.553406 320.345398,335.689392 
	C319.157593,336.160889 318.070343,336.245880 317.820831,336.747559 
	C316.150299,340.106018 314.658264,343.553223 312.370819,346.952484 
	C306.014557,346.872040 308.366364,342.046417 308.030579,338.001465 
	C308.346313,337.433136 308.542358,336.724945 309.005371,336.328735 
	C309.729370,335.709198 310.634003,335.300812 311.462128,334.802948 
	C311.644806,335.340698 311.827484,335.878479 312.010162,336.416290 
	C311.462799,336.589172 310.915436,336.762085 310.368073,336.934967 
	C310.155792,335.938934 309.565399,334.836212 309.810059,333.969086 
	C310.318634,332.166534 311.269745,330.488861 312.038971,328.759827 
	C311.635437,328.494690 311.231903,328.229523 310.828339,327.964355 
	C309.295990,330.006958 307.763611,332.049561 305.328491,334.082458 
	C300.496643,334.652466 295.664764,335.222443 290.332733,335.999115 
	C289.902313,336.323120 289.471893,336.647095 289.004059,337.004211 
	C289.004059,337.004211 288.971008,337.041656 288.350311,336.797333 
	C283.598663,331.890106 283.600861,331.892883 278.162079,336.232178 
	C277.525726,336.739960 276.870026,337.560059 276.185425,337.600891 
	C274.750610,337.686523 273.290619,337.349457 271.880463,337.166901 
	C271.880463,337.166901 271.845245,337.170135 271.801453,336.443237 
	C269.714081,335.163879 267.655121,333.834930 265.531982,332.618042 
	C263.037109,331.188141 261.524719,332.049591 260.652283,335.021515 
	C260.652283,335.021515 260.284454,335.099976 259.761749,335.337250 
	C260.086182,336.253906 260.410645,337.170532 260.692017,338.488953 
	C260.602966,338.768951 260.418304,338.953064 259.735596,339.498138 
	C259.559692,340.073608 259.383789,340.649048 259.229584,341.249237 
	C259.229584,341.249237 259.223755,341.281708 258.522552,341.099457 
	C257.095215,339.668671 255.667862,338.237915 254.123917,336.076721 
	C253.747772,334.601440 253.371628,333.126160 252.898697,331.271240 
	C250.193222,332.742401 248.101486,333.879791 245.236511,334.943939 
	C242.639008,334.457977 240.047409,333.615082 237.442566,333.571930 
	C233.780991,333.511230 232.885880,331.755981 233.156296,328.526886 
	C233.478424,324.680695 233.598984,320.817566 233.831650,316.502167 
	C232.171387,316.330475 230.574066,316.165283 228.508240,315.861359 
	C228.198242,315.694672 228.012894,315.437988 227.598923,314.702820 
	C227.312714,314.499817 227.026489,314.296844 226.853363,314.152618 
M427.308929,353.498413 
	C427.308929,353.498413 427.439301,353.326508 428.178894,353.528015 
	C429.771576,352.659058 431.364258,351.790070 433.147186,350.737457 
	C433.147186,350.737457 433.410126,350.765717 434.236877,350.834442 
	C437.027710,351.047760 438.848419,350.052582 439.163879,346.561798 
	C439.300568,346.262817 439.526337,346.065979 440.513000,345.723724 
	C441.161682,342.916626 442.328064,340.093933 442.244263,337.308899 
	C442.201294,335.881439 439.632812,333.175629 438.708344,333.375275 
	C435.549072,334.057404 431.055267,329.270447 429.307281,335.829895 
	C428.294830,339.618378 427.386353,343.438507 426.246155,347.188171 
	C424.417786,353.200928 421.782959,359.051483 422.427856,365.912598 
	C423.834625,365.752563 424.655273,365.758179 425.414185,365.544556 
	C426.144440,365.338989 426.810883,364.906647 427.574860,364.540680 
	C425.319153,361.874023 425.284485,360.492859 427.352081,354.601685 
	C427.457581,354.293671 427.492981,353.977814 427.308929,353.498413 
M92.112885,342.801910 
	C90.483391,343.442749 88.853897,344.083588 86.745743,344.912659 
	C87.094933,342.841980 87.401337,341.232117 87.633682,339.611664 
	C88.678955,332.321686 89.688927,324.839172 86.066788,318.128479 
	C84.637314,315.480133 81.207535,312.981476 78.273102,312.352234 
	C75.645126,311.788666 72.446365,313.886902 69.499428,314.810760 
	C69.647697,315.283691 69.795959,315.756653 69.944229,316.229584 
	C78.397324,313.117889 82.311234,315.132324 84.336273,324.010498 
	C84.992378,326.887054 85.275948,329.974915 85.024376,332.905518 
	C84.519470,338.787170 83.528763,344.627106 82.738556,350.484253 
	C83.162003,350.922913 83.585449,351.361603 84.008904,351.800293 
	C86.768188,348.520508 89.527473,345.240723 91.983116,341.838135 
	C92.134193,341.846191 92.285263,341.854248 92.436333,341.862244 
	C92.348450,341.902191 92.260559,341.942139 92.112885,342.801910 
M306.008728,168.413071 
	C302.287964,167.573746 298.582581,166.092499 294.843842,166.002853 
	C275.560822,165.540512 256.269287,165.432861 236.980316,165.232834 
	C236.781784,165.230789 236.578857,165.652206 235.318466,167.056030 
	C237.594254,167.594742 239.245270,168.201828 240.936417,168.349731 
	C249.876144,169.131516 252.654007,171.910538 253.116119,180.771164 
	C253.168137,181.768707 253.235565,182.767288 253.235748,183.765396 
	C253.240860,211.403473 253.331131,239.042007 253.193741,266.679413 
	C253.133896,278.717743 251.045395,280.681824 239.107880,281.867920 
	C237.989609,281.979034 236.957199,282.954071 235.884918,283.528015 
	C236.064026,283.948212 236.243118,284.368408 236.422226,284.788605 
	C253.471909,284.788605 270.521606,284.788605 287.571289,284.788605 
	C287.720337,284.220490 287.869354,283.652374 288.018402,283.084259 
	C286.445618,282.648712 284.891937,281.932495 283.296906,281.824188 
	C274.441071,281.222839 271.264160,278.407745 270.857483,269.640594 
	C270.479767,261.497894 270.595734,253.331528 270.534363,245.175278 
	C270.494629,239.896027 270.526886,234.616226 270.526886,229.087692 
	C273.999817,229.641251 276.789825,230.520203 279.554260,230.446182 
	C288.294250,230.212173 297.324341,230.878235 305.690796,228.883499 
	C319.292969,225.640457 327.050385,214.179169 327.714172,199.620346 
	C328.330872,186.094269 320.733734,174.923813 306.008728,168.413071 
M248.818512,227.372360 
	C250.569382,216.853622 245.871704,207.932724 241.876892,198.784622 
	C233.156296,178.814438 224.485245,158.821304 215.989975,138.754547 
	C211.682373,128.579498 214.356171,123.415146 224.502335,122.736328 
	C225.539352,122.666946 226.477707,121.122383 227.461853,120.262360 
	C227.158981,119.964012 226.856125,119.665657 226.553253,119.367310 
	C210.492691,119.367310 194.432129,119.367310 176.703445,119.367310 
	C178.712936,121.163063 179.559570,122.592026 180.524078,122.676605 
	C189.280380,123.444450 193.325409,129.203995 196.448135,136.556396 
	C205.226791,157.225601 214.266357,177.784058 223.215378,198.380829 
	C229.050385,211.810486 234.867264,225.248428 240.816956,238.627213 
	C241.393494,239.923660 242.851715,240.828033 243.900650,241.914413 
	C244.918930,240.782288 246.475708,239.803268 246.849670,238.487961 
	C247.790359,235.179352 248.197052,231.718933 248.818512,227.372360 
M322.507172,349.585022 
	C320.830353,353.384247 319.153534,357.183472 317.476715,360.982727 
	C325.378021,354.462646 326.998596,344.930725 329.692078,335.900787 
	C324.802368,338.849579 322.915741,343.371490 322.507172,349.585022 
M103.684143,324.755707 
	C102.866043,326.805969 102.047943,328.856262 101.160614,331.080048 
	C106.742554,328.377930 109.292885,319.254974 105.945396,314.682739 
	C103.502449,311.345978 100.583496,311.461670 98.023590,314.996735 
	C103.221581,315.488739 104.104836,316.856934 103.684143,324.755707 
M188.394379,348.224762 
	C182.447479,346.817902 182.761307,341.918396 182.775665,336.917450 
	C179.306747,341.116241 179.245209,345.185242 182.199081,348.335388 
	C185.257080,351.596558 191.453018,351.978912 195.651077,349.053192 
	C193.383347,348.845123 191.251450,348.649536 188.394379,348.224762 
M380.267029,312.912506 
	C375.034302,311.418335 371.501831,311.988525 367.791046,314.926300 
	C379.417572,314.858643 380.146545,315.221863 380.153900,320.942047 
	C382.214752,318.687988 384.773590,316.515198 380.267029,312.912506 
M300.844543,361.728394 
	C302.376038,364.175079 304.057343,366.304138 307.208679,365.564484 
	C305.424591,362.359375 303.910614,359.639557 301.951416,356.119873 
	C301.429749,358.140656 301.057983,359.580688 300.844543,361.728394 
z"/>
<path fill="#000000" opacity="1.000000" stroke="none" 
	d="
M276.468658,501.000000 
	C279.634644,500.003113 283.211365,498.600464 286.912872,498.072021 
	C323.757751,492.811920 357.419525,479.453247 388.589569,459.225983 
	C405.857758,448.020081 421.559052,434.941528 435.327606,419.848419 
	C456.317200,396.839630 472.760895,370.757080 483.910767,341.513245 
	C491.398773,321.873718 496.661041,301.689911 499.021698,280.774261 
	C499.121704,279.888367 499.831787,279.071350 500.628845,278.111115 
	C501.000000,352.260681 501.000000,426.521393 501.000000,501.000000 
	C426.312592,501.000000 351.624939,501.000000 276.468658,501.000000 
z"/>
<path fill="#000000" opacity="1.000000" stroke="none" 
	d="
M0.999996,279.468658 
	C1.678733,279.994843 2.831263,280.929535 2.966350,281.993408 
	C5.745560,303.881073 11.381983,324.995148 19.699295,345.422913 
	C30.070534,370.895142 44.449608,393.810059 62.279308,414.771820 
	C80.507751,436.202362 102.263702,453.308411 126.278976,467.388885 
	C151.253342,482.031677 178.215668,492.026520 206.931320,496.779999 
	C212.163864,497.646149 217.451706,498.174347 222.696457,498.973755 
	C223.756699,499.135345 224.737579,499.817535 225.877518,500.629883 
	C151.073456,501.000000 76.146912,501.000000 1.000000,501.000000 
	C1.000000,427.312592 1.000000,353.624939 0.999996,279.468658 
z"/>
<path fill="#000000" opacity="1.000000" stroke="none" 
	d="
M501.000000,222.531342 
	C499.997711,219.542664 498.619843,216.145935 498.050598,212.618713 
	C491.720703,173.398193 477.658691,137.297775 453.719971,105.486946 
	C444.265747,92.923737 434.101288,80.667458 422.828979,69.749084 
	C401.818481,49.398331 377.663452,33.360622 350.660248,21.712114 
	C328.707947,12.242429 305.971985,5.887015 282.264069,2.919883 
	C281.543823,2.829739 280.897980,2.144706 280.108734,1.368512 
	C353.593872,1.000000 427.187714,1.000000 501.000000,1.000000 
	C501.000000,74.687416 501.000000,148.375046 501.000000,222.531342 
z"/>
<path fill="#000000" opacity="1.000000" stroke="none" 
	d="
M221.531342,1.000002 
	C219.213120,1.964735 216.495926,3.383687 213.628525,3.823608 
	C186.332321,8.011428 160.399292,16.302912 135.900833,29.080437 
	C118.326256,38.246712 102.198021,49.481674 87.121559,62.337811 
	C69.695663,77.197372 54.830376,94.300034 42.255165,113.345100 
	C23.463472,141.805008 10.957520,172.855682 4.989347,206.494644 
	C4.079877,211.620773 2.828681,216.686249 1.367772,221.889893 
	C1.000000,148.406296 1.000000,74.812584 1.000000,1.000000 
	C74.354080,1.000000 147.708389,1.000000 221.531342,1.000002 
z"/>
<path fill="#1E4C53" opacity="1.000000" stroke="none" 
	d="
M264.531342,1.000000 
	C255.905411,1.138294 246.810822,1.276589 237.358124,1.207441 
	C246.020889,1.000000 255.041794,1.000000 264.531342,1.000000 
z"/>
<path fill="#DBBE9D" opacity="1.000000" stroke="none" 
	d="
M306.360107,168.575989 
	C320.733734,174.923813 328.330872,186.094269 327.714172,199.620346 
	C327.050385,214.179169 319.292969,225.640457 305.690796,228.883499 
	C297.324341,230.878235 288.294250,230.212173 279.554260,230.446182 
	C276.789825,230.520203 273.999817,229.641251 270.526886,229.087692 
	C270.526886,234.616226 270.494629,239.896027 270.534363,245.175278 
	C270.595734,253.331528 270.479767,261.497894 270.857483,269.640594 
	C271.264160,278.407745 274.441071,281.222839 283.296906,281.824188 
	C284.891937,281.932495 286.445618,282.648712 288.018402,283.084259 
	C287.869354,283.652374 287.720337,284.220490 287.571289,284.788605 
	C270.521606,284.788605 253.471909,284.788605 236.422226,284.788605 
	C236.243118,284.368408 236.064026,283.948212 235.884918,283.528015 
	C236.957199,282.954071 237.989609,281.979034 239.107880,281.867920 
	C251.045395,280.681824 253.133896,278.717743 253.193741,266.679413 
	C253.331131,239.042007 253.240860,211.403473 253.235748,183.765396 
	C253.235565,182.767288 253.168137,181.768707 253.116119,180.771164 
	C252.654007,171.910538 249.876144,169.131516 240.936417,168.349731 
	C239.245270,168.201828 237.594254,167.594742 235.318466,167.056030 
	C236.578857,165.652206 236.781784,165.230789 236.980316,165.232834 
	C256.269287,165.432861 275.560822,165.540512 294.843842,166.002853 
	C298.582581,166.092499 302.287964,167.573746 306.360107,168.575989 
M270.507629,201.499634 
	C270.507629,208.915146 270.507629,216.330673 270.507629,223.965912 
	C275.414581,224.524521 279.516663,225.180099 283.642944,225.420547 
	C291.360077,225.870285 297.547119,222.766617 302.245483,216.690979 
	C309.098511,207.829056 309.149628,192.529602 302.405029,182.393280 
	C296.674072,173.780319 284.876007,169.963287 273.467224,173.386139 
	C272.182434,173.771606 270.700073,176.083130 270.645447,177.551193 
	C270.361145,185.191803 270.509735,192.848526 270.507629,201.499634 
z"/>
<path fill="#DCBF9D" opacity="1.000000" stroke="none" 
	d="
M248.818176,227.845856 
	C248.197052,231.718933 247.790359,235.179352 246.849670,238.487961 
	C246.475708,239.803268 244.918930,240.782288 243.900665,241.914398 
	C242.851715,240.828033 241.393494,239.923660 240.816956,238.627213 
	C234.867264,225.248428 229.050385,211.810486 223.215378,198.380829 
	C214.266357,177.784058 205.226791,157.225601 196.448135,136.556396 
	C193.325409,129.203995 189.280380,123.444450 180.524078,122.676605 
	C179.559570,122.592026 178.712936,121.163063 176.703445,119.367310 
	C194.432129,119.367310 210.492691,119.367310 226.553253,119.367310 
	C226.856125,119.665657 227.158981,119.964012 227.461853,120.262360 
	C226.477707,121.122383 225.539352,122.666946 224.502335,122.736328 
	C214.356171,123.415146 211.682373,128.579498 215.989975,138.754547 
	C224.485245,158.821304 233.156296,178.814438 241.876892,198.784622 
	C245.871704,207.932724 250.569382,216.853622 248.818176,227.845856 
z"/>
<path fill="#D9BF9E" opacity="1.000000" stroke="none" 
	d="
M274.881927,150.743713 
	C276.566681,146.069687 278.398163,141.442337 279.903076,136.711105 
	C282.382996,128.914856 280.255615,125.325226 272.354858,123.099869 
	C270.769592,122.653358 269.351318,121.613892 267.856018,120.847824 
	C268.069733,120.329933 268.283417,119.812035 268.497101,119.294144 
	C280.561737,119.294144 292.626404,119.294144 305.986176,119.294144 
	C304.809357,120.883148 304.211670,122.603203 303.267181,122.821320 
	C295.572052,124.598373 291.716156,130.268265 288.778503,136.799561 
	C285.852753,143.304367 283.207184,149.935226 279.927704,156.883789 
	C277.302460,156.419418 273.970123,160.514191 272.854095,155.635834 
	C272.854095,155.635834 272.851379,155.260422 273.102783,154.901428 
	C273.451782,154.221741 273.549408,153.901031 273.647034,153.580322 
	C273.647034,153.580322 273.680969,153.790161 273.853546,153.577316 
	C274.311401,152.490891 274.596680,151.617294 274.881927,150.743713 
z"/>
<path fill="#123839" opacity="1.000000" stroke="none" 
	d="
M240.936325,347.018829 
	C238.235367,345.200531 238.977661,342.878204 240.322662,340.077454 
	C240.821945,338.457214 240.983200,337.276611 241.144455,336.096039 
	C240.054169,336.087128 238.372147,335.624756 237.973068,336.145538 
	C235.930038,338.811554 234.595612,336.152496 232.628036,335.724792 
	C231.962372,335.818054 231.417953,335.876099 231.384750,336.038635 
	C230.473236,340.499908 229.576233,344.965912 228.864655,349.460846 
	C228.831589,349.669708 230.534454,350.153381 231.428833,350.509033 
	C230.263519,351.086365 229.098206,351.663696 227.932892,352.241028 
	C227.565720,350.670532 226.428970,348.717377 226.982269,347.604523 
	C228.384567,344.784088 229.039429,342.940521 226.028809,340.466187 
	C223.597336,338.467804 222.034012,337.662109 219.183044,339.470459 
	C218.078217,340.171265 216.001053,339.503052 214.407974,339.223816 
	C212.824463,338.946289 211.292633,338.373993 209.392593,337.539154 
	C211.898453,329.475616 214.749847,321.803925 217.568680,314.219788 
	C222.716385,315.004974 225.855072,317.118195 227.345215,321.280457 
	C229.260178,326.629364 227.223618,330.971588 222.876755,335.039490 
	C231.898224,333.345215 234.339264,324.621277 228.976730,316.000061 
	C230.574066,316.165283 232.171387,316.330475 233.831650,316.502167 
	C233.598984,320.817566 233.478424,324.680695 233.156296,328.526886 
	C232.885880,331.755981 233.780991,333.511230 237.442566,333.571930 
	C240.047409,333.615082 242.639008,334.457977 245.633789,335.253204 
	C246.038818,335.744324 246.046539,335.926208 245.942352,336.366730 
	C245.530655,337.084167 245.230850,337.542938 244.956299,337.993347 
	C244.981567,337.984985 244.993408,337.933075 244.707886,338.035583 
	C244.251846,338.701019 244.081360,339.263947 243.637207,340.051147 
	C242.554459,342.523254 241.745392,344.771027 240.936325,347.018829 
z"/>
<path fill="#243F3C" opacity="1.000000" stroke="none" 
	d="
M407.177734,350.920319 
	C405.426910,349.700928 403.676117,348.481506 401.530334,347.192596 
	C401.135376,347.123077 401.004395,347.008087 401.214844,346.726929 
	C402.049957,345.131104 403.245361,343.783661 403.172058,342.509155 
	C403.046906,340.332275 402.768890,337.061981 401.403656,336.291748 
	C398.694000,334.763000 395.513885,335.428802 393.675598,339.149109 
	C390.670563,343.143738 388.765350,346.992554 392.991089,351.251831 
	C392.980377,351.480194 392.959167,351.936890 392.959167,351.936890 
	C387.162415,351.199097 388.132233,346.535828 388.409271,343.030609 
	C388.645355,340.043610 387.588806,340.449310 385.475708,340.568481 
	C385.249542,336.994781 384.243317,335.054291 381.067596,336.034851 
	C380.799042,338.108246 380.578644,339.809998 380.358246,341.511749 
	C378.381775,338.165924 376.776459,338.766754 375.213928,341.896179 
	C374.525848,343.274323 373.510437,344.489075 372.347351,345.513702 
	C373.057434,342.383057 374.063812,339.516724 375.387634,335.746246 
	C373.297638,336.338135 372.144104,336.664825 370.990540,336.991516 
	C372.086578,336.102783 373.135956,334.522186 374.286713,334.444611 
	C379.365356,334.102173 384.474792,334.248840 389.569855,334.104950 
	C392.616180,334.018921 395.656647,333.724701 398.699341,333.517883 
	C398.861816,333.506866 399.067200,333.351715 399.174133,333.409332 
	C403.848511,335.927094 408.376190,336.694702 412.506866,332.357300 
	C413.260254,333.400269 414.011810,334.444550 414.767548,335.485870 
	C415.663269,336.720062 416.562622,337.951660 417.762207,339.586548 
	C416.130310,343.646362 416.107605,347.311615 418.019958,350.984619 
	C415.846588,350.806641 413.673218,350.628632 411.182526,350.129456 
	C411.176117,345.191467 411.487030,340.574646 411.775665,336.288361 
	C407.827545,338.000153 405.174438,345.466736 407.177734,350.920319 
z"/>
<path fill="#1D3F3C" opacity="1.000000" stroke="none" 
	d="
M145.117401,336.018280 
	C145.762405,335.900787 146.603439,336.003906 147.022232,335.631805 
	C151.449631,331.698029 155.782806,333.360870 160.558167,335.861481 
	C160.985046,335.994965 161.141876,336.160004 160.933975,336.482849 
	C160.782745,338.764404 160.594727,340.769897 160.958344,342.669830 
	C161.408066,345.019653 162.315735,347.281830 163.136047,349.939941 
	C166.235550,349.464447 166.082703,346.926178 165.814453,344.153809 
	C165.931641,344.052948 166.166733,343.852020 166.166733,343.852020 
	C168.943024,347.984863 167.089874,352.046539 162.112625,352.157654 
	C158.258118,352.243652 154.389297,351.688080 150.564209,351.214355 
	C151.362274,350.427246 152.122955,349.843506 152.883652,349.259766 
	C149.342743,345.461121 152.343384,342.138977 153.754074,339.048157 
	C154.896576,340.545776 155.938339,341.688873 156.980103,342.832001 
	C157.469543,342.135956 157.959000,341.439941 158.448441,340.743896 
	C156.859665,340.051971 155.270889,339.360046 153.752289,338.288208 
	C154.087509,334.405212 152.277695,335.633789 151.224152,336.992950 
	C147.971268,341.189514 146.150635,345.742157 149.173294,350.928162 
	C145.591217,351.086365 142.009155,351.244568 138.692993,351.147125 
	C140.274475,350.579132 141.590042,350.266754 142.536926,350.041931 
	C139.296799,344.128021 142.767624,340.173004 145.117401,336.018280 
M159.367813,345.793335 
	C159.623672,345.794281 159.879532,345.795197 160.135391,345.796143 
	C160.058487,345.535400 159.981583,345.274658 159.904678,345.013916 
	C159.699463,345.175018 159.494247,345.336121 159.367813,345.793335 
z"/>
<path fill="#C5B9A2" opacity="1.000000" stroke="none" 
	d="
M228.742493,315.930725 
	C234.339264,324.621277 231.898224,333.345215 222.876755,335.039490 
	C227.223618,330.971588 229.260178,326.629364 227.345215,321.280457 
	C225.855072,317.118195 222.716385,315.004974 217.568680,314.219788 
	C214.749847,321.803925 211.898453,329.475616 208.993134,337.510559 
	C208.939209,337.873810 208.909882,337.919037 208.710052,338.024994 
	C208.248093,338.366516 208.146210,338.658081 208.204590,339.005646 
	C206.113678,341.193359 204.022766,343.381073 201.834595,345.670563 
	C202.282455,345.876801 202.689117,346.064056 203.095795,346.251312 
	C206.818680,334.987793 210.541580,323.724243 214.210449,312.624146 
	C217.181030,311.817505 220.011414,311.048920 222.832718,310.489716 
	C222.755646,311.378571 222.438385,312.543488 222.660675,312.657684 
	C223.968201,313.329071 225.401505,313.755554 226.792419,314.264557 
	C226.792419,314.264557 226.853363,314.152618 226.898651,314.389709 
	C227.280045,314.781616 227.616119,314.936432 227.952209,315.091278 
	C228.012894,315.437988 228.198242,315.694672 228.742493,315.930725 
z"/>
<path fill="#C1B69F" opacity="1.000000" stroke="none" 
	d="
M92.286736,341.960938 
	C89.527473,345.240723 86.768188,348.520508 84.008904,351.800293 
	C83.585449,351.361603 83.162003,350.922913 82.738556,350.484253 
	C83.528763,344.627106 84.519470,338.787170 85.024376,332.905518 
	C85.275948,329.974915 84.992378,326.887054 84.336273,324.010498 
	C82.311234,315.132324 78.397324,313.117889 69.944229,316.229584 
	C69.795959,315.756653 69.647697,315.283691 69.499428,314.810760 
	C72.446365,313.886902 75.645126,311.788666 78.273102,312.352234 
	C81.207535,312.981476 84.637314,315.480133 86.066788,318.128479 
	C89.688927,324.839172 88.678955,332.321686 87.633682,339.611664 
	C87.401337,341.232117 87.094933,342.841980 86.745743,344.912659 
	C88.853897,344.083588 90.483391,343.442749 92.172424,342.392822 
	C92.231964,341.983704 92.286713,341.960907 92.286736,341.960938 
z"/>
<path fill="#173A38" opacity="1.000000" stroke="none" 
	d="
M254.240509,336.807159 
	C255.667862,338.237915 257.095215,339.668671 258.817932,341.551819 
	C257.150269,347.702728 255.187180,353.401337 253.224106,359.099915 
	C252.339813,353.007843 251.129974,352.172516 242.451813,351.602600 
	C242.033066,350.787720 242.040527,350.326874 242.389984,350.024292 
	C244.703354,350.182587 246.674713,350.182587 248.646088,350.182587 
	C242.809921,348.590424 244.554321,344.439209 244.990967,340.538147 
	C245.118393,339.382812 245.055908,338.657959 244.993408,337.933075 
	C244.993408,337.933075 244.981567,337.984985 245.232422,338.395966 
	C250.300262,337.387573 251.450012,338.282318 251.162888,343.182587 
	C251.065567,344.843445 251.041245,346.508575 251.017242,348.435059 
	C251.419189,349.141052 251.787430,349.583740 252.155701,350.026398 
	C252.072037,349.321930 251.988373,348.617432 251.952026,347.551331 
	C252.642212,343.812256 253.285080,340.434784 254.005417,336.993958 
	C254.082901,336.930603 254.240494,336.807159 254.240509,336.807159 
z"/>
<path fill="#B6B09A" opacity="1.000000" stroke="none" 
	d="
M433.410126,350.765747 
	C433.410126,350.765717 433.147186,350.737457 432.659790,350.816925 
	C430.594666,351.706421 429.016968,352.516449 427.439301,353.326477 
	C427.439301,353.326508 427.308929,353.498413 427.236877,353.777496 
	C427.049744,354.376831 427.039673,354.700348 427.134613,355.027069 
	C425.284485,360.492859 425.319153,361.874023 427.574860,364.540680 
	C426.810883,364.906647 426.144440,365.338989 425.414185,365.544556 
	C424.655273,365.758179 423.834625,365.752563 422.427856,365.912598 
	C421.782959,359.051483 424.417786,353.200928 426.246155,347.188171 
	C427.386353,343.438507 428.294830,339.618378 429.592896,335.490997 
	C431.763153,334.148834 433.745453,332.809326 434.154388,336.530609 
	C434.165771,336.633911 435.237885,336.620697 435.878082,336.929260 
	C435.964691,337.378235 435.988617,337.559814 435.679413,337.873688 
	C432.987671,341.436035 430.628998,344.866089 428.149872,348.471252 
	C430.783020,349.619812 432.096558,350.192780 433.410126,350.765747 
z"/>
<path fill="#243F3C" opacity="1.000000" stroke="none" 
	d="
M365.050171,356.106323 
	C363.106628,362.069244 350.978729,366.687317 344.484344,362.295166 
	C344.278442,360.879913 344.238892,359.669861 343.615540,359.018829 
	C340.431824,355.693665 339.840302,352.012482 341.632385,347.855621 
	C341.958923,349.423981 342.272888,350.995117 342.614197,352.560272 
	C344.013489,358.977539 349.349182,361.751984 355.256775,358.798676 
	C358.173218,357.340668 360.724823,355.152985 363.705688,353.514679 
	C364.329987,354.524689 364.690063,355.315521 365.050171,356.106323 
z"/>
<path fill="#1C3B3A" opacity="1.000000" stroke="none" 
	d="
M115.923492,336.139404 
	C117.051971,336.148926 118.180458,336.158447 119.697037,336.467773 
	C120.157936,338.230255 120.582680,339.783691 120.233635,341.137634 
	C119.386528,344.423492 118.179504,347.616577 117.117493,350.847046 
	C115.131989,350.834839 113.146492,350.822632 111.158043,350.444336 
	C110.770393,349.681580 110.385689,349.284882 109.756561,348.751465 
	C108.986061,348.435394 108.459984,348.256073 107.961235,348.041687 
	C107.988571,348.006622 107.921532,348.066101 107.898552,347.683228 
	C108.367561,345.290649 108.859558,343.280945 109.421074,340.987244 
	C109.278542,340.896454 108.578232,340.450531 107.918930,339.739502 
	C108.045349,339.317352 108.130783,339.160248 108.498627,338.901489 
	C109.686852,338.917664 110.633614,338.908142 111.488853,339.183228 
	C112.754646,339.590302 113.955482,340.199341 115.183975,340.722412 
	C115.430473,339.194733 115.676987,337.667053 115.923492,336.139404 
z"/>
<path fill="#BAB49D" opacity="1.000000" stroke="none" 
	d="
M253.189285,359.088867 
	C255.187180,353.401337 257.150269,347.702728 259.168549,341.642944 
	C259.223755,341.281708 259.229584,341.249237 259.468781,341.047882 
	C259.851349,340.244781 259.994690,339.643036 260.138031,339.041290 
	C260.418304,338.953064 260.602966,338.768951 260.854523,337.994934 
	C260.772827,336.700592 260.528656,335.900299 260.284454,335.099976 
	C260.284454,335.099976 260.652283,335.021515 261.116516,334.828918 
	C263.922394,333.416626 264.792969,334.144318 264.205414,336.971924 
	C263.775360,338.517914 263.571777,339.836823 263.063141,341.025146 
	C261.954132,343.616028 260.689789,346.140442 259.471008,348.730072 
	C261.718628,349.628754 263.195679,350.219330 264.672699,350.809906 
	C264.672699,350.809906 264.875366,350.843994 264.516418,350.758759 
	C263.247467,350.981140 262.337433,351.288757 261.427399,351.596375 
	C261.427399,351.596375 261.147797,351.186249 260.604431,351.131439 
	C259.246552,352.616150 258.432037,354.155701 257.617554,355.695251 
	C257.617554,355.695251 257.643341,355.761963 257.452728,356.050110 
	C257.037903,357.454468 256.884949,358.590942 256.574066,359.682434 
	C255.992126,361.725433 255.318649,363.742371 254.683258,365.770142 
	C254.191208,363.522736 253.699173,361.275360 253.207138,359.027954 
	C253.207138,359.027954 253.154465,359.077850 253.189285,359.088867 
z"/>
<path fill="#BDB7A2" opacity="1.000000" stroke="none" 
	d="
M322.647919,349.204834 
	C322.915741,343.371490 324.802368,338.849579 329.692078,335.900787 
	C326.998596,344.930725 325.378021,354.462646 317.476715,360.982727 
	C319.153534,357.183472 320.830353,353.384247 322.647919,349.204834 
z"/>
<path fill="#243F3C" opacity="1.000000" stroke="none" 
	d="
M274.471222,347.031067 
	C273.694397,346.071289 272.917572,345.111511 271.951843,343.580078 
	C271.788940,341.067566 271.814941,339.126770 271.840942,337.185944 
	C273.290619,337.349457 274.750610,337.686523 276.185425,337.600891 
	C276.870026,337.560059 277.525726,336.739960 278.162079,336.232178 
	C283.600861,331.892883 283.598663,331.890106 288.694214,336.963287 
	C289.038086,337.129242 289.041473,336.971100 289.041443,336.971069 
	C289.471893,336.647095 289.902313,336.323120 290.654297,335.975586 
	C290.975861,335.952057 291.118408,336.108551 291.213440,336.444946 
	C291.457550,337.878571 291.606598,338.975830 291.755646,340.073059 
	C288.968750,340.762482 286.181854,341.451874 283.152893,341.594421 
	C283.199524,340.165833 283.488190,339.284088 283.792297,338.355133 
	C277.134583,337.772125 276.022675,338.833801 274.471222,347.031067 
z"/>
<path fill="#BEB6A0" opacity="1.000000" stroke="none" 
	d="
M307.948303,349.062622 
	C307.748016,349.551544 307.547699,350.040466 306.793701,350.733490 
	C305.489624,350.981781 304.739258,351.026001 303.988922,351.070190 
	C303.988922,351.070190 303.666626,350.901611 303.330200,350.541412 
	C301.434418,344.287262 304.267578,339.277191 306.231262,334.092163 
	C307.763611,332.049561 309.295990,330.006958 310.828339,327.964355 
	C311.231903,328.229523 311.635437,328.494690 312.038971,328.759827 
	C311.269745,330.488861 310.318634,332.166534 309.810059,333.969086 
	C309.565399,334.836212 310.155792,335.938934 310.368073,336.934998 
	C310.915436,336.762085 311.462799,336.589172 312.010193,336.416260 
	C311.827484,335.878479 311.644806,335.340698 311.462097,334.802948 
	C310.634003,335.300812 309.729370,335.709198 309.005371,336.328735 
	C308.542358,336.724945 308.346313,337.433136 307.697998,338.663483 
	C306.855225,341.232422 305.950439,343.143127 305.968658,345.044983 
	C305.981537,346.390381 307.243774,347.723846 307.948303,349.062622 
z"/>
<path fill="#C9BEA7" opacity="1.000000" stroke="none" 
	d="
M103.753052,324.367188 
	C104.104836,316.856934 103.221581,315.488739 98.023590,314.996735 
	C100.583496,311.461670 103.502449,311.345978 105.945396,314.682739 
	C109.292885,319.254974 106.742554,328.377930 101.160614,331.080048 
	C102.047943,328.856262 102.866043,326.805969 103.753052,324.367188 
z"/>
<path fill="#1D3C3C" opacity="1.000000" stroke="none" 
	d="
M265.026245,350.775940 
	C263.195679,350.219330 261.718628,349.628754 259.471008,348.730072 
	C260.689789,346.140442 261.954132,343.616028 263.063141,341.025146 
	C263.571777,339.836823 263.775360,338.517914 264.666016,337.039978 
	C265.522614,336.861664 265.830444,336.901520 266.464600,337.100983 
	C267.387573,339.406677 268.077393,341.532593 268.546906,343.706146 
	C268.842560,345.074799 268.808472,346.514679 268.922302,347.922607 
	C267.741486,348.862427 266.560638,349.802216 265.026245,350.775940 
z"/>
<path fill="#C7B9A0" opacity="1.000000" stroke="none" 
	d="
M352.982300,344.025787 
	C352.876984,343.723846 352.716675,343.454620 352.240936,342.765076 
	C351.720581,341.961121 351.460724,341.610229 351.200836,341.259338 
	C350.694275,333.046173 352.960419,326.787476 357.837067,323.218964 
	C356.957489,327.302277 356.104919,331.260071 355.225250,335.972839 
	C355.705627,338.552094 356.213104,340.376373 356.720581,342.200684 
	C356.720581,342.200684 356.746216,342.224060 356.853271,342.569733 
	C358.449921,347.167999 355.025299,344.286102 354.031250,344.932953 
	C354.031250,344.932953 354.015686,344.992737 353.939697,344.748169 
	C353.569916,344.344330 353.276123,344.185059 352.982300,344.025787 
z"/>
<path fill="#1F3D3A" opacity="1.000000" stroke="none" 
	d="
M433.823486,350.800110 
	C432.096558,350.192780 430.783020,349.619812 428.149872,348.471252 
	C430.628998,344.866089 432.987671,341.436035 436.054504,338.015625 
	C437.048828,341.263489 437.334991,344.501740 437.616913,347.692078 
	C437.622620,347.689240 438.319305,347.343628 439.015991,346.998016 
	C438.848419,350.052582 437.027710,351.047760 433.823486,350.800110 
z"/>
<path fill="#243F3C" opacity="1.000000" stroke="none" 
	d="
M305.779877,334.087311 
	C304.267578,339.277191 301.434418,344.287262 303.148926,350.527100 
	C301.614380,349.484772 301.614380,349.484772 301.088013,340.396851 
	C299.481293,340.841736 297.973999,341.259064 296.154236,341.335205 
	C294.783569,338.866394 296.186523,334.359314 291.118408,336.108551 
	C291.118408,336.108551 290.975861,335.952057 290.904388,335.872253 
	C295.664764,335.222443 300.496643,334.652466 305.779877,334.087311 
z"/>
<path fill="#C2B9A3" opacity="1.000000" stroke="none" 
	d="
M188.756958,348.339355 
	C191.251450,348.649536 193.383347,348.845123 195.651077,349.053192 
	C191.453018,351.978912 185.257080,351.596558 182.199081,348.335388 
	C179.245209,345.185242 179.306747,341.116241 182.775665,336.917450 
	C182.761307,341.918396 182.447479,346.817902 188.756958,348.339355 
z"/>
<path fill="#C2B9A3" opacity="1.000000" stroke="none" 
	d="
M365.041290,356.076172 
	C364.690063,355.315521 364.329987,354.524689 364.020569,353.400452 
	C364.071259,353.067047 364.021301,353.031128 364.270264,352.959595 
	C364.677917,352.592102 364.836578,352.296112 364.995270,352.000122 
	C364.995270,352.000122 365.001221,352.000000 365.258667,351.844971 
	C365.720673,351.137177 365.925171,350.584351 366.129700,350.031555 
	C366.129700,350.031555 366.063446,350.048187 366.348114,349.864075 
	C367.210114,347.181122 370.574249,344.885315 367.185211,342.097504 
	C367.185211,342.097504 367.604828,342.009583 368.106842,341.821045 
	C369.402832,340.085358 370.196808,338.538269 370.990814,336.991180 
	C370.990814,336.991180 370.999756,337.000000 370.995148,336.995758 
	C372.144104,336.664825 373.297638,336.338135 375.387634,335.746246 
	C374.063812,339.516724 373.057434,342.383057 372.017120,345.620300 
	C371.983154,345.991180 372.003601,345.996979 371.769714,346.176788 
	C371.348572,346.903046 371.161316,347.449524 370.974060,347.995972 
	C370.974060,347.995972 371.008026,347.997284 370.766174,348.170166 
	C370.304291,348.880920 370.084229,349.418854 369.864197,349.956757 
	C369.864197,349.956757 369.931732,349.944275 369.672577,350.083313 
	C369.161499,350.767029 368.909607,351.311707 368.657715,351.856384 
	C368.657715,351.856384 368.752502,351.833740 368.472260,351.958252 
	C367.159607,353.406708 366.127197,354.730713 365.094788,356.054688 
	C365.094788,356.054688 365.032410,356.046021 365.041290,356.076172 
z"/>
<path fill="#BDB7A2" opacity="1.000000" stroke="none" 
	d="
M132.998718,334.861053 
	C132.998718,334.861053 133.456665,334.952606 133.717758,335.403320 
	C133.997650,336.898773 134.016464,337.943512 133.915009,339.204987 
	C133.794739,339.421722 133.612427,339.882721 133.401276,340.065857 
	C133.062561,340.787933 132.934982,341.326813 132.819458,341.886353 
	C132.831512,341.906952 132.806686,341.858032 132.541122,342.123230 
	C132.269669,344.735565 128.421936,348.091980 134.004822,348.970886 
	C132.421738,349.621490 130.838654,350.272095 128.743469,350.437073 
	C128.151627,348.293549 128.071899,346.635712 127.992157,344.977844 
	C127.992157,344.977844 128.182785,344.674438 128.420197,344.238983 
	C129.311874,342.003387 129.966125,340.203247 130.806992,337.889618 
	C129.119690,338.137756 128.034378,338.297363 126.894508,338.464996 
	C127.353050,337.550873 127.719131,336.821106 128.085205,336.091309 
	C129.156174,335.715118 130.227158,335.338959 131.899719,334.972351 
	C132.667114,334.941620 132.832916,334.901337 132.998718,334.861053 
z"/>
<path fill="#B6B5A4" opacity="1.000000" stroke="none" 
	d="
M274.549255,347.381653 
	C276.022675,338.833801 277.134583,337.772125 283.792297,338.355133 
	C283.488190,339.284088 283.199524,340.165833 282.909485,341.418304 
	C282.158051,342.175140 281.407990,342.561310 279.969757,342.992004 
	C279.316498,344.832123 279.351379,346.627686 279.386261,348.423248 
	C279.386261,348.423248 279.526581,348.657349 279.949097,348.772888 
	C281.047607,349.016754 281.723602,349.145142 282.399567,349.273499 
	C282.383362,349.674561 282.367188,350.075623 282.350983,350.476654 
	C280.244415,350.568634 278.137817,350.660614 276.031219,350.752625 
	C276.031219,350.752625 276.055054,350.931885 276.032043,350.666931 
	C275.702850,350.213379 275.396637,350.024750 275.090424,349.836121 
	C274.936035,349.134827 274.781677,348.433563 274.549255,347.381653 
z"/>
<path fill="#B7B19E" opacity="1.000000" stroke="none" 
	d="
M313.108337,346.971649 
	C314.658264,343.553223 316.150299,340.106018 317.820831,336.747559 
	C318.070343,336.245880 319.157593,336.160889 320.345398,335.689392 
	C319.236237,340.553406 314.753601,344.578156 318.741089,350.035583 
	C317.627533,350.311890 316.306763,350.639648 314.503235,350.626343 
	C313.703552,349.995514 313.386627,349.705658 313.069702,349.415802 
	C313.069702,349.415802 313.239105,349.242432 313.250244,348.795349 
	C313.210388,347.889404 313.159363,347.430542 313.108337,346.971649 
z"/>
<path fill="#C5B9A2" opacity="1.000000" stroke="none" 
	d="
M341.755127,347.573914 
	C339.840302,352.012482 340.431824,355.693665 343.615540,359.018829 
	C344.238892,359.669861 344.278442,360.879913 344.262665,361.994568 
	C335.006165,357.133606 334.050812,351.331238 341.648132,345.976532 
	C342.033081,346.042084 342.094177,346.117462 342.094177,346.117462 
	C342.022095,346.509064 341.949951,346.900635 341.755127,347.573914 
z"/>
<path fill="#243F3C" opacity="1.000000" stroke="none" 
	d="
M366.818970,342.157776 
	C370.574249,344.885315 367.210114,347.181122 366.361938,349.895325 
	C364.954651,349.329132 363.918030,348.255646 362.661316,347.826141 
	C359.949524,346.899323 357.124695,346.303162 354.188690,345.252319 
	C355.025299,344.286102 358.449921,347.167999 356.852448,342.587036 
	C359.980621,342.245148 363.216675,342.231598 366.818970,342.157776 
z"/>
<path fill="#BAB49D" opacity="1.000000" stroke="none" 
	d="
M144.918549,335.737732 
	C142.767624,340.173004 139.296799,344.128021 142.536926,350.041931 
	C141.590042,350.266754 140.274475,350.579132 138.593689,350.857971 
	C138.228439,350.824463 138.242676,350.825287 138.127563,350.474335 
	C138.186584,347.630890 138.504074,345.136871 138.477814,342.646515 
	C138.463470,341.285004 137.867645,339.929626 137.521637,338.534851 
	C137.509201,338.498230 137.428619,338.473785 137.625702,338.693481 
	C138.284698,338.339508 138.746628,337.765839 139.208557,337.192169 
	C141.045593,336.613861 142.882660,336.035553 144.918549,335.737732 
z"/>
<path fill="#C5B9A2" opacity="1.000000" stroke="none" 
	d="
M418.010803,350.993958 
	C416.107605,347.311615 416.130310,343.646362 418.125671,339.641449 
	C418.187347,339.294128 418.182190,339.269287 418.416779,339.125000 
	C418.751190,338.630707 418.850983,338.280670 418.950806,337.930664 
	C419.997009,337.062012 421.043213,336.193390 421.843658,335.528778 
	C421.667938,340.638519 421.502686,345.443359 420.801666,350.546875 
	C419.512329,350.890045 418.758820,350.934540 418.005280,350.979065 
	C418.005280,350.979065 418.001617,351.003265 418.010803,350.993958 
z"/>
<path fill="#B9B5A1" opacity="1.000000" stroke="none" 
	d="
M380.612823,313.107483 
	C384.773590,316.515198 382.214752,318.687988 380.153900,320.942047 
	C380.146545,315.221863 379.417572,314.858643 367.791046,314.926300 
	C371.501831,311.988525 375.034302,311.418335 380.612823,313.107483 
z"/>
<path fill="#C2B9A3" opacity="1.000000" stroke="none" 
	d="
M380.328125,341.881653 
	C380.578644,339.809998 380.799042,338.108246 381.067596,336.034851 
	C384.243317,335.054291 385.249542,336.994781 385.179932,340.629059 
	C385.180725,341.039093 384.925568,341.290619 384.595398,341.685333 
	C383.494263,344.380280 382.723328,346.680511 381.952393,348.980743 
	C381.952393,348.980743 381.755493,349.245422 381.465179,349.569763 
	C380.157959,350.251678 379.141083,350.609222 378.124176,350.966766 
	C378.848785,348.061676 379.573395,345.156616 380.328125,341.881653 
z"/>
<path fill="#BEB6A0" opacity="1.000000" stroke="none" 
	d="
M149.381622,350.945679 
	C146.150635,345.742157 147.971268,341.189514 151.224152,336.992950 
	C152.277695,335.633789 154.087509,334.405212 153.775238,338.325714 
	C153.728043,338.743073 153.653336,338.693665 153.653336,338.693665 
	C152.343384,342.138977 149.342743,345.461121 152.883652,349.259766 
	C152.122955,349.843506 151.362274,350.427246 150.287354,351.070831 
	C149.973114,351.130676 149.589966,350.963226 149.381622,350.945679 
z"/>
<path fill="#BDB7A2" opacity="1.000000" stroke="none" 
	d="
M117.088264,350.859863 
	C118.179504,347.616577 119.386528,344.423492 120.233635,341.137634 
	C120.582680,339.783691 120.157936,338.230255 120.118492,336.509583 
	C120.151840,336.251556 120.108742,336.227264 120.529465,336.138611 
	C126.474091,336.390839 124.320671,340.091919 123.989990,342.995239 
	C123.989990,342.995239 124.001221,343.000000 123.734558,343.192078 
	C122.974808,344.588257 122.481720,345.792358 121.988640,346.996429 
	C121.988640,346.996429 122.002678,346.999207 121.778473,347.183014 
	C121.412483,347.915710 121.270699,348.464600 121.128914,349.013489 
	C121.128914,349.013489 120.928413,349.351135 120.622276,349.729492 
	C119.240387,350.343781 118.164627,350.579712 117.088875,350.815643 
	C117.088875,350.815643 117.059036,350.872681 117.088264,350.859863 
z"/>
<path fill="#1D3F3C" opacity="1.000000" stroke="none" 
	d="
M160.906403,335.912659 
	C162.656311,332.338440 165.603897,332.140564 168.210373,334.252197 
	C170.906982,336.436920 168.829987,338.549774 167.085800,340.465271 
	C166.494598,341.114563 166.423187,342.237091 166.140472,343.497681 
	C166.166733,343.852020 165.931641,344.052948 165.566254,343.907532 
	C164.539352,341.519104 163.973923,339.239380 163.141983,337.061462 
	C162.956909,336.576965 161.833344,336.451019 161.141876,336.160004 
	C161.141876,336.160004 160.985046,335.994965 160.906403,335.912659 
z"/>
<path fill="#173836" opacity="1.000000" stroke="none" 
	d="
M398.046387,348.174683 
	C398.046356,348.174683 398.036285,348.591705 397.771606,348.721100 
	C397.331329,348.826599 397.155762,348.802734 396.724518,348.650513 
	C395.916321,348.392517 395.363800,348.262909 394.519897,347.852051 
	C394.464905,344.717072 394.701355,341.863373 395.286011,338.815430 
	C400.280548,337.569580 401.214569,338.955444 399.727997,345.226379 
	C399.031799,346.361938 398.539093,347.268311 398.046387,348.174683 
z"/>
<path fill="#1F3D3A" opacity="1.000000" stroke="none" 
	d="
M435.815369,336.661804 
	C435.237885,336.620697 434.165771,336.633911 434.154388,336.530609 
	C433.745453,332.809326 431.763153,334.148834 429.532074,335.275635 
	C431.055267,329.270447 435.549072,334.057404 438.708344,333.375275 
	C439.632812,333.175629 442.201294,335.881439 442.244263,337.308899 
	C442.328064,340.093933 441.161682,342.916626 440.278503,345.448059 
	C440.481659,343.472626 441.307861,341.765686 441.276581,340.074615 
	C441.209808,336.466827 439.768677,334.377625 435.815369,336.661804 
z"/>
<path fill="#BEB6A0" opacity="1.000000" stroke="none" 
	d="
M407.383240,350.942810 
	C405.174438,345.466736 407.827545,338.000153 411.775665,336.288361 
	C411.487030,340.574646 411.176117,345.191467 410.819061,350.184326 
	C410.772919,350.560364 410.781769,350.584167 410.438324,350.663300 
	C409.387085,350.868835 408.679260,350.995209 407.971466,351.121582 
	C407.971466,351.121582 407.588715,350.965271 407.383240,350.942810 
z"/>
<path fill="#BAB49D" opacity="1.000000" stroke="none" 
	d="
M231.438446,350.483337 
	C230.534454,350.153381 228.831589,349.669708 228.864655,349.460846 
	C229.576233,344.965912 230.473236,340.499908 231.384750,336.038635 
	C231.417953,335.876099 231.962372,335.818054 232.791702,336.102966 
	C233.563217,338.689850 233.811600,340.885071 234.063477,343.311707 
	C234.066971,343.543152 234.145462,343.999359 234.145462,343.999359 
	C233.715637,345.052368 233.285812,346.105347 232.613190,347.719116 
	C232.080048,349.012421 231.789703,349.745026 231.499344,350.477600 
	C231.499344,350.477600 231.448044,350.457611 231.438446,350.483337 
z"/>
<path fill="#C2B9A3" opacity="1.000000" stroke="none" 
	d="
M291.213440,336.444946 
	C296.186523,334.359314 294.783569,338.866394 295.805054,341.372955 
	C295.768341,341.751892 295.793945,341.772308 295.505676,341.996246 
	C294.455536,344.498047 293.693695,346.775909 292.931824,349.053772 
	C292.931824,349.053772 292.762756,349.206207 292.511993,349.494598 
	C291.519379,350.229523 290.777527,350.676025 290.035706,351.122559 
	C290.600342,347.682831 291.164978,344.243164 291.742615,340.438263 
	C291.606598,338.975830 291.457550,337.878571 291.213440,336.444946 
z"/>
<path fill="#1C3B3A" opacity="1.000000" stroke="none" 
	d="
M124.368217,343.008911 
	C124.320671,340.091919 126.474091,336.390839 120.556503,336.145721 
	C122.240196,330.968842 124.907501,333.814941 127.795387,335.899628 
	C127.719131,336.821106 127.353050,337.550873 126.894508,338.464996 
	C128.034378,338.297363 129.119690,338.137756 130.806992,337.889618 
	C129.966125,340.203247 129.311874,342.003387 128.413818,344.059967 
	C127.028816,343.885132 125.887634,343.453857 124.368217,343.008911 
z"/>
<path fill="#173A38" opacity="1.000000" stroke="none" 
	d="
M252.960052,359.306274 
	C253.699173,361.275360 254.191208,363.522736 254.683258,365.770142 
	C255.318649,363.742371 255.992126,361.725433 256.574066,359.682434 
	C256.884949,358.590942 257.037903,357.454468 257.485901,356.036743 
	C257.939911,357.044006 257.950165,358.441681 258.437195,359.646667 
	C261.021027,366.039398 260.599854,366.696960 253.365265,366.987061 
	C252.866455,367.007080 252.366379,366.994995 251.433441,366.998932 
	C251.000000,367.000000 250.994278,366.996368 250.994263,366.996368 
	C251.567169,364.525787 252.140076,362.055176 252.960052,359.306274 
z"/>
<path fill="#C4BFA7" opacity="1.000000" stroke="none" 
	d="
M110.000977,348.888184 
	C110.385689,349.284882 110.770393,349.681580 110.970322,350.267090 
	C110.386963,350.591125 109.988388,350.726349 108.942291,350.940216 
	C106.933289,350.655151 105.571808,350.291443 104.210320,349.927734 
	C104.085991,349.505219 103.961670,349.082733 103.734207,347.949890 
	C104.797546,344.215393 105.964027,341.191193 107.380096,338.196289 
	C107.825188,338.484741 108.020699,338.743958 108.216209,339.003174 
	C108.130783,339.160248 108.045349,339.317352 107.686890,340.049744 
	C107.583084,343.105377 107.752304,345.585754 107.921524,348.066101 
	C107.921532,348.066101 107.988571,348.006622 108.120590,348.303772 
	C108.835396,348.696716 109.418190,348.792450 110.000977,348.888184 
z"/>
<path fill="#B7B19E" opacity="1.000000" stroke="none" 
	d="
M396.980225,348.778839 
	C397.155762,348.802734 397.331329,348.826599 397.760925,348.929382 
	C398.014923,349.008301 398.042480,349.491089 397.807678,349.819519 
	C397.262512,350.253723 397.043091,350.457458 396.526184,350.816833 
	C395.092407,350.924225 394.047089,350.973846 393.001770,351.023499 
	C388.765350,346.992554 390.670563,343.143738 393.909424,339.155701 
	C394.469971,338.993591 394.937775,339.009674 394.937775,339.009674 
	C394.701355,341.863373 394.464905,344.717072 394.697754,348.111206 
	C395.771393,348.694031 396.375824,348.736450 396.980225,348.778839 
z"/>
<path fill="#2B4540" opacity="1.000000" stroke="none" 
	d="
M137.534058,338.571503 
	C137.867645,339.929626 138.463470,341.285004 138.477814,342.646515 
	C138.504074,345.136871 138.186584,347.630890 138.120483,350.462036 
	C137.003204,350.246735 135.777893,349.692749 134.278687,349.054810 
	C128.421936,348.091980 132.269669,344.735565 132.594925,342.489258 
	C133.352478,343.579590 133.790649,344.569122 134.228836,345.558624 
	C134.710266,345.513336 135.191681,345.468048 135.673111,345.422729 
	C136.293427,343.139008 136.913742,340.855255 137.534058,338.571503 
z"/>
<path fill="#B6B5A4" opacity="1.000000" stroke="none" 
	d="
M300.765381,361.374542 
	C301.057983,359.580688 301.429749,358.140656 301.951416,356.119873 
	C303.910614,359.639557 305.424591,362.359375 307.208679,365.564484 
	C304.057343,366.304138 302.376038,364.175079 300.765381,361.374542 
z"/>
<path fill="#B7B19E" opacity="1.000000" stroke="none" 
	d="
M244.801041,340.968597 
	C244.554321,344.439209 242.809921,348.590424 248.646088,350.182587 
	C246.674713,350.182587 244.703354,350.182587 242.348389,349.815552 
	C241.890900,349.159515 241.731720,348.929657 241.487213,348.758850 
	C241.377991,348.367920 241.268768,347.976959 241.047928,347.302429 
	C241.745392,344.771027 242.554459,342.523254 243.771881,340.251953 
	C244.365875,340.493011 244.572815,340.739746 244.801041,340.968597 
z"/>
<path fill="#42544A" opacity="1.000000" stroke="none" 
	d="
M108.498627,338.901489 
	C108.020699,338.743958 107.825188,338.484741 107.371185,337.942261 
	C107.112427,337.489410 107.112167,337.319794 107.111908,337.150177 
	C107.111908,337.150177 107.173180,337.131866 107.481628,336.990356 
	C108.982903,335.666595 110.175728,334.484344 111.368561,333.302094 
	C111.646072,333.374451 111.927788,333.399506 112.530212,333.598999 
	C113.872116,334.583893 114.897507,335.347015 115.922897,336.110138 
	C115.922897,336.110138 115.946594,336.114105 115.935043,336.126740 
	C115.676987,337.667053 115.430473,339.194733 115.183975,340.722412 
	C113.955482,340.199341 112.754646,339.590302 111.488853,339.183228 
	C110.633614,338.908142 109.686852,338.917664 108.498627,338.901489 
z"/>
<path fill="#C9BEA7" opacity="1.000000" stroke="none" 
	d="
M269.054138,347.639893 
	C268.808472,346.514679 268.842560,345.074799 268.546906,343.706146 
	C268.077393,341.532593 267.387573,339.406677 266.598145,336.753510 
	C268.218658,336.554321 270.031952,336.862213 271.845245,337.170135 
	C271.845245,337.170135 271.880463,337.166901 271.860687,337.176422 
	C271.814941,339.126770 271.788940,341.067566 271.680847,343.419678 
	C270.794495,345.006378 269.990234,346.181793 269.054138,347.639893 
z"/>
<path fill="#C4BFA7" opacity="1.000000" stroke="none" 
	d="
M435.878082,336.929260 
	C439.768677,334.377625 441.209808,336.466827 441.276581,340.074615 
	C441.307861,341.765686 440.481659,343.472626 439.942627,345.571838 
	C439.526337,346.065979 439.300568,346.262817 439.089935,346.779907 
	C438.319305,347.343628 437.622620,347.689240 437.616913,347.692078 
	C437.334991,344.501740 437.048828,341.263489 436.387604,337.883301 
	C435.988617,337.559814 435.964691,337.378235 435.878082,336.929260 
z"/>
<path fill="#A9A996" opacity="1.000000" stroke="none" 
	d="
M234.059982,343.080292 
	C233.811600,340.885071 233.563217,338.689850 233.151169,336.116455 
	C234.595612,336.152496 235.930038,338.811554 237.973068,336.145538 
	C238.372147,335.624756 240.054169,336.087128 241.144455,336.096039 
	C240.983200,337.276611 240.821945,338.457214 240.366028,339.745117 
	C237.216934,337.799957 236.295670,340.294952 234.747986,342.410095 
	C234.460281,342.827087 234.059982,343.080292 234.059982,343.080292 
z"/>
<path fill="#C9BEA7" opacity="1.000000" stroke="none" 
	d="
M272.599121,155.885147 
	C273.970123,160.514191 277.302460,156.419418 279.708374,157.159500 
	C278.643250,162.850113 274.369751,159.216904 270.763275,160.345688 
	C271.474426,158.451248 271.909302,157.292847 272.599121,155.885147 
z"/>
<path fill="#243F3C" opacity="1.000000" stroke="none" 
	d="
M312.739563,346.962067 
	C313.159363,347.430542 313.210388,347.889404 313.189392,348.690552 
	C311.680389,349.029480 310.243439,349.026154 308.377380,349.042725 
	C307.243774,347.723846 305.981537,346.390381 305.968658,345.044983 
	C305.950439,343.143127 306.855225,341.232422 307.634521,339.039978 
	C308.366364,342.046417 306.014557,346.872040 312.739563,346.962067 
z"/>
<path fill="#243F3C" opacity="1.000000" stroke="none" 
	d="
M271.823364,336.806702 
	C270.031952,336.862213 268.218658,336.554321 266.271790,336.593903 
	C265.830444,336.901520 265.522614,336.861664 264.754150,336.753693 
	C264.792969,334.144318 263.922394,333.416626 261.261108,334.708679 
	C261.524719,332.049591 263.037109,331.188141 265.531982,332.618042 
	C267.655121,333.834930 269.714081,335.163879 271.823364,336.806702 
z"/>
<path fill="#243F3C" opacity="1.000000" stroke="none" 
	d="
M276.336060,350.992340 
	C278.137817,350.660614 280.244415,350.568634 282.350983,350.476654 
	C282.367188,350.075623 282.383362,349.674561 282.399567,349.273499 
	C281.723602,349.145142 281.047607,349.016754 280.085083,348.761475 
	C281.550232,347.977264 283.301880,347.319977 285.418762,346.525696 
	C284.256012,351.804626 282.559174,352.589813 276.336060,350.992340 
z"/>
<path fill="#173A38" opacity="1.000000" stroke="none" 
	d="
M246.054260,336.108063 
	C246.046539,335.926208 246.038818,335.744324 246.020416,335.289856 
	C248.101486,333.879791 250.193222,332.742401 252.898697,331.271240 
	C253.371628,333.126160 253.747772,334.601440 254.182205,336.441956 
	C254.240494,336.807159 254.082901,336.930603 253.703033,336.812988 
	C250.900208,336.499573 248.477234,336.303802 246.054260,336.108063 
z"/>
<path fill="#1C3B3A" opacity="1.000000" stroke="none" 
	d="
M106.779823,337.239319 
	C107.112167,337.319794 107.112427,337.489410 107.121605,337.913025 
	C105.964027,341.191193 104.797546,344.215393 103.599091,347.648254 
	C100.205734,343.320435 103.026978,340.243988 106.779823,337.239319 
z"/>
<path fill="#1C3B3A" opacity="1.000000" stroke="none" 
	d="
M127.727608,345.196106 
	C128.071899,346.635712 128.151627,348.293549 128.377075,350.340088 
	C127.158264,351.422943 125.793762,352.117126 124.429260,352.811279 
	C124.195526,352.535828 123.961800,352.260345 123.728073,351.984894 
	C124.973068,349.794708 126.218063,347.604523 127.727608,345.196106 
z"/>
<path fill="#2B4540" opacity="1.000000" stroke="none" 
	d="
M138.895874,337.007385 
	C138.746628,337.765839 138.284698,338.339508 137.208984,338.796631 
	C135.741882,338.782837 134.888580,338.885559 134.035278,338.988251 
	C134.016464,337.943512 133.997650,336.898773 133.943161,335.464294 
	C135.466049,335.657227 137.024612,336.239929 138.895874,337.007385 
z"/>
<path fill="#1C3B3A" opacity="1.000000" stroke="none" 
	d="
M103.938675,350.040283 
	C105.571808,350.291443 106.933289,350.655151 108.653870,351.070251 
	C107.359489,351.632111 105.706017,352.142517 104.052536,352.652954 
	C103.924034,351.819580 103.795532,350.986237 103.938675,350.040283 
z"/>
<path fill="#1C3B3A" opacity="1.000000" stroke="none" 
	d="
M110.964630,333.253387 
	C110.175728,334.484344 108.982903,335.666595 107.479309,336.958435 
	C106.968353,334.611694 107.719879,332.990936 110.964630,333.253387 
z"/>
<path fill="#1D3C3C" opacity="1.000000" stroke="none" 
	d="
M258.005737,355.648560 
	C258.432037,354.155701 259.246552,352.616150 260.356476,351.141937 
	C259.899231,352.672119 259.146576,354.137024 258.005737,355.648560 
z"/>
<path fill="#1F3D3A" opacity="1.000000" stroke="none" 
	d="
M427.809082,353.427246 
	C429.016968,352.516449 430.594666,351.706421 432.564636,350.908752 
	C431.364258,351.790070 429.771576,352.659058 427.809082,353.427246 
z"/>
<path fill="#243F3C" opacity="1.000000" stroke="none" 
	d="
M382.236511,348.764893 
	C382.723328,346.680511 383.494263,344.380280 384.557556,341.860413 
	C384.073486,343.943542 383.297058,346.246277 382.236511,348.764893 
z"/>
<path fill="#243F3C" opacity="1.000000" stroke="none" 
	d="
M293.206299,348.825409 
	C293.693695,346.775909 294.455536,344.498047 295.490906,341.998474 
	C295.003204,344.050201 294.242004,346.323639 293.206299,348.825409 
z"/>
<path fill="#243F3C" opacity="1.000000" stroke="none" 
	d="
M279.498779,347.990234 
	C279.351379,346.627686 279.316498,344.832123 279.658630,343.077148 
	C279.894226,344.597595 279.752777,346.077423 279.498779,347.990234 
z"/>
<path fill="#243F3C" opacity="1.000000" stroke="none" 
	d="
M365.453186,356.007477 
	C366.127197,354.730713 367.159607,353.406708 368.459045,351.911316 
	C367.754608,353.146698 366.783112,354.553467 365.453186,356.007477 
z"/>
<path fill="#243F3C" opacity="1.000000" stroke="none" 
	d="
M378.251129,351.254913 
	C379.141083,350.609222 380.157959,350.251678 381.468964,349.734680 
	C381.562195,351.826508 381.350891,354.059937 378.251129,351.254913 
z"/>
<path fill="#123839" opacity="1.000000" stroke="none" 
	d="
M226.694519,313.909485 
	C225.401505,313.755554 223.968201,313.329071 222.660675,312.657684 
	C222.438385,312.543488 222.755646,311.378571 223.134384,310.506226 
	C224.495621,311.393707 225.546112,312.474030 226.694519,313.909485 
z"/>
<path fill="#243F3C" opacity="1.000000" stroke="none" 
	d="
M370.683838,337.114929 
	C370.196808,338.538269 369.402832,340.085358 368.295288,341.718872 
	C368.780121,340.283051 369.578491,338.760834 370.683838,337.114929 
z"/>
<path fill="#1C3B3A" opacity="1.000000" stroke="none" 
	d="
M115.847626,335.773865 
	C114.897507,335.347015 113.872116,334.583893 112.739517,333.560333 
	C113.678993,334.012451 114.725677,334.725006 115.847626,335.773865 
z"/>
<path fill="#243F3C" opacity="1.000000" stroke="none" 
	d="
M356.769958,341.830566 
	C356.213104,340.376373 355.705627,338.552094 355.278870,336.362793 
	C355.846191,337.818665 356.332733,339.639557 356.769958,341.830566 
z"/>
<path fill="#243F3C" opacity="1.000000" stroke="none" 
	d="
M260.023102,335.218628 
	C260.528656,335.900299 260.772827,336.700592 260.876068,337.794067 
	C260.410645,337.170532 260.086182,336.253906 260.023102,335.218628 
z"/>
<path fill="#1C3B3A" opacity="1.000000" stroke="none" 
	d="
M117.284195,351.058197 
	C118.164627,350.579712 119.240387,350.343781 120.612198,349.925537 
	C120.787346,352.512360 119.651222,353.046448 117.284195,351.058197 
z"/>
<path fill="#243F3C" opacity="1.000000" stroke="none" 
	d="
M398.305786,348.166046 
	C398.539093,347.268311 399.031799,346.361938 399.759857,345.549438 
	C400.331573,346.098236 400.667969,346.553162 401.004395,347.008087 
	C401.004395,347.008087 401.135376,347.123077 401.201477,347.180969 
	C400.366760,347.545013 399.465942,347.851196 398.305786,348.166046 
z"/>
<path fill="#123839" opacity="1.000000" stroke="none" 
	d="
M241.275391,348.982758 
	C241.731720,348.929657 241.890900,349.159515 242.006378,349.657257 
	C242.040527,350.326874 242.033066,350.787720 242.024155,351.592896 
	C241.702988,351.027069 241.383286,350.116852 241.275391,348.982758 
z"/>
<path fill="#123839" opacity="1.000000" stroke="none" 
	d="
M231.805817,350.486572 
	C231.789703,349.745026 232.080048,349.012421 232.576172,348.063110 
	C232.558716,348.729431 232.335495,349.612488 231.805817,350.486572 
z"/>
<path fill="#1C3B3A" opacity="1.000000" stroke="none" 
	d="
M122.293716,346.844238 
	C122.481720,345.792358 122.974808,344.588257 123.730774,343.186310 
	C123.528702,344.222961 123.063751,345.457489 122.293716,346.844238 
z"/>
<path fill="#243F3C" opacity="1.000000" stroke="none" 
	d="
M290.299988,351.251892 
	C290.777527,350.676025 291.519379,350.229523 292.541199,349.604614 
	C292.068878,350.077881 291.316589,350.729553 290.299988,351.251892 
z"/>
<path fill="#243F3C" opacity="1.000000" stroke="none" 
	d="
M396.914642,350.759094 
	C397.043091,350.457458 397.262512,350.253723 397.786072,350.060303 
	C397.800262,350.673340 397.601196,351.373993 397.184998,351.719788 
	C396.950134,351.163025 396.932373,350.961060 396.914642,350.759094 
z"/>
<path fill="#173836" opacity="1.000000" stroke="none" 
	d="
M396.526184,350.816833 
	C396.932373,350.961060 396.950134,351.163025 396.993134,351.667389 
	C395.936890,351.972260 394.855377,351.974701 393.366516,351.957031 
	C392.959167,351.936890 392.980377,351.480194 392.991089,351.251831 
	C394.047089,350.973846 395.092407,350.924225 396.526184,350.816833 
z"/>
<path fill="#1D3C3C" opacity="1.000000" stroke="none" 
	d="
M261.803162,351.632324 
	C262.337433,351.288757 263.247467,350.981140 264.532166,350.657227 
	C263.997528,350.983368 263.088196,351.325836 261.803162,351.632324 
z"/>
<path fill="#243F3C" opacity="1.000000" stroke="none" 
	d="
M418.235535,351.143860 
	C418.758820,350.934540 419.512329,350.890045 420.643066,350.818054 
	C420.168823,350.963257 419.317322,351.135956 418.235535,351.143860 
z"/>
<path fill="#243F3C" opacity="1.000000" stroke="none" 
	d="
M408.216125,351.255463 
	C408.679260,350.995209 409.387085,350.868835 410.448303,350.664490 
	C410.021423,350.854156 409.241089,351.121735 408.216125,351.255463 
z"/>
<path fill="#243F3C" opacity="1.000000" stroke="none" 
	d="
M304.225220,351.214813 
	C304.739258,351.026001 305.489624,350.981781 306.616089,350.944763 
	C306.148682,351.087738 305.305084,351.223572 304.225220,351.214813 
z"/>
<path fill="#C9BEA7" opacity="1.000000" stroke="none" 
	d="
M274.629486,150.976227 
	C274.596680,151.617294 274.311401,152.490891 273.748230,153.591797 
	C273.772583,152.948990 274.074829,152.078857 274.629486,150.976227 
z"/>
<path fill="#243F3C" opacity="1.000000" stroke="none" 
	d="
M370.080994,349.758362 
	C370.084229,349.418854 370.304291,348.880920 370.754333,348.157715 
	C370.755493,348.501617 370.526642,349.030792 370.080994,349.758362 
z"/>
<path fill="#173A38" opacity="1.000000" stroke="none" 
	d="
M259.936829,339.269714 
	C259.994690,339.643036 259.851349,340.244781 259.457947,341.035522 
	C259.383789,340.649048 259.559692,340.073608 259.936829,339.269714 
z"/>
<path fill="#2B4540" opacity="1.000000" stroke="none" 
	d="
M132.944672,334.733948 
	C132.832916,334.901337 132.667114,334.941620 132.252319,334.924133 
	C132.299103,334.779846 132.594864,334.693359 132.944672,334.733948 
z"/>
<path fill="#C5B9A2" opacity="1.000000" stroke="none" 
	d="
M342.001465,346.005249 
	C342.264771,345.791656 342.559692,345.614899 342.854645,345.438171 
	C342.730469,345.674133 342.606293,345.910065 342.288147,346.131744 
	C342.094177,346.117462 342.033081,346.042084 342.001465,346.005249 
z"/>
<path fill="#243F3C" opacity="1.000000" stroke="none" 
	d="
M368.900635,351.672729 
	C368.909607,351.311707 369.161499,350.767029 369.661102,350.050964 
	C369.653717,350.416046 369.398651,350.952545 368.900635,351.672729 
z"/>
<path fill="#243F3C" opacity="1.000000" stroke="none" 
	d="
M365.917236,350.230377 
	C365.925171,350.584351 365.720673,351.137177 365.257446,351.842377 
	C365.234070,351.472931 365.469421,350.951050 365.917236,350.230377 
z"/>
<path fill="#243F3C" opacity="1.000000" stroke="none" 
	d="
M371.172852,347.785065 
	C371.161316,347.449524 371.348572,346.903046 371.762451,346.167786 
	C371.783264,346.510712 371.577454,347.042450 371.172852,347.785065 
z"/>
<path fill="#1C3B3A" opacity="1.000000" stroke="none" 
	d="
M121.294502,348.787048 
	C121.270699,348.464600 121.412483,347.915710 121.773735,347.176392 
	C121.815498,347.510803 121.637794,348.035706 121.294502,348.787048 
z"/>
<path fill="#C9BEA7" opacity="1.000000" stroke="none" 
	d="
M273.444031,153.754684 
	C273.549408,153.901031 273.451782,154.221741 273.218140,154.753372 
	C273.135071,154.619217 273.188049,154.274124 273.444031,153.754684 
z"/>
<path fill="#1F3D3A" opacity="1.000000" stroke="none" 
	d="
M427.243347,354.814392 
	C427.039673,354.700348 427.049744,354.376831 427.311554,353.855347 
	C427.492981,353.977814 427.457581,354.293671 427.243347,354.814392 
z"/>
<path fill="#123839" opacity="1.000000" stroke="none" 
	d="
M227.775574,314.897034 
	C227.616119,314.936432 227.280045,314.781616 226.842117,314.360291 
	C227.026489,314.296844 227.312714,314.499817 227.775574,314.897034 
z"/>
<path fill="#173A38" opacity="1.000000" stroke="none" 
	d="
M251.001831,367.002808 
	C251.003662,367.005646 250.928055,367.044922 250.961166,367.020630 
	C250.994278,366.996368 251.000000,367.000000 251.001831,367.002808 
z"/>
<path fill="#243F3C" opacity="1.000000" stroke="none" 
	d="
M364.801941,352.150330 
	C364.836578,352.296112 364.677917,352.592102 364.277985,352.989380 
	C364.174347,352.788940 364.364990,352.525543 364.801941,352.150330 
z"/>
<path fill="#123839" opacity="1.000000" stroke="none" 
	d="
M208.356750,338.849487 
	C208.146210,338.658081 208.248093,338.366516 208.732681,338.039124 
	C208.846481,338.219971 208.697723,338.468658 208.356750,338.849487 
z"/>
<path fill="#243F3C" opacity="1.000000" stroke="none" 
	d="
M418.780151,338.126587 
	C418.850983,338.280670 418.751190,338.630707 418.406708,339.117737 
	C418.311188,338.944031 418.460358,338.633301 418.780151,338.126587 
z"/>
<path fill="#C1B69F" opacity="1.000000" stroke="none" 
	d="
M92.202316,341.982910 
	C92.260559,341.942139 92.348450,341.902191 92.436340,341.862274 
	C92.285263,341.854248 92.134193,341.846191 92.134918,341.899536 
	C92.286713,341.960907 92.231964,341.983704 92.202316,341.982910 
z"/>
<path fill="#243F3C" opacity="1.000000" stroke="none" 
	d="
M351.296234,341.571716 
	C351.460724,341.610229 351.720581,341.961121 352.041016,342.639221 
	C351.864929,342.605652 351.628296,342.244873 351.296234,341.571716 
z"/>
<path fill="#123839" opacity="1.000000" stroke="none" 
	d="
M234.063477,343.311707 
	C234.059982,343.080292 234.460281,342.827087 234.679199,342.736145 
	C234.748901,342.956512 234.599701,343.267822 234.297974,343.789246 
	C234.145462,343.999359 234.066971,343.543152 234.063477,343.311707 
z"/>
<path fill="#243F3C" opacity="1.000000" stroke="none" 
	d="
M353.125854,344.224518 
	C353.276123,344.185059 353.569916,344.344330 353.968842,344.737915 
	C353.761536,344.854034 353.493347,344.671021 353.125854,344.224518 
z"/>
<path fill="#243F3C" opacity="1.000000" stroke="none" 
	d="
M313.224487,349.695953 
	C313.386627,349.705658 313.703552,349.995514 314.135681,350.590576 
	C313.960327,350.589233 313.669800,350.282684 313.224487,349.695953 
z"/>
<path fill="#243F3C" opacity="1.000000" stroke="none" 
	d="
M275.241760,350.052673 
	C275.396637,350.024750 275.702850,350.213379 276.121613,350.654480 
	C275.953827,350.694336 275.673462,350.481750 275.241760,350.052673 
z"/>
<path fill="#0D383C" opacity="1.000000" stroke="none" 
	d="
M270.507599,200.999634 
	C270.509735,192.848526 270.361145,185.191803 270.645447,177.551193 
	C270.700073,176.083130 272.182434,173.771606 273.467224,173.386139 
	C284.876007,169.963287 296.674072,173.780319 302.405029,182.393280 
	C309.149628,192.529602 309.098511,207.829056 302.245483,216.690979 
	C297.547119,222.766617 291.360077,225.870285 283.642944,225.420547 
	C279.516663,225.180099 275.414581,224.524521 270.507629,223.965912 
	C270.507629,216.330673 270.507629,208.915146 270.507599,200.999634 
z"/>
<path fill="#B9B5A1" opacity="1.000000" stroke="none" 
	d="
M245.942352,336.366730 
	C248.477234,336.303802 250.900208,336.499573 253.625549,336.876343 
	C253.285080,340.434784 252.642212,343.812256 251.719666,347.609344 
	C251.439972,348.028961 250.983551,348.171753 250.983551,348.171753 
	C251.041245,346.508575 251.065567,344.843445 251.162888,343.182587 
	C251.450012,338.282318 250.300262,337.387573 245.207153,338.404327 
	C245.230850,337.542938 245.530655,337.084167 245.942352,336.366730 
z"/>
<path fill="#B9B5A1" opacity="1.000000" stroke="none" 
	d="
M244.990967,340.538147 
	C244.572815,340.739746 244.365875,340.493011 244.045563,340.027649 
	C244.081360,339.263947 244.251846,338.701019 244.707886,338.035583 
	C245.055908,338.657959 245.118393,339.382812 244.990967,340.538147 
z"/>
<path fill="#B9B5A1" opacity="1.000000" stroke="none" 
	d="
M401.214844,346.726929 
	C400.667969,346.553162 400.331573,346.098236 399.963318,345.320251 
	C401.214569,338.955444 400.280548,337.569580 395.286011,338.815430 
	C394.937775,339.009674 394.469971,338.993591 394.236145,338.987000 
	C395.513885,335.428802 398.694000,334.763000 401.403656,336.291748 
	C402.768890,337.061981 403.046906,340.332275 403.172058,342.509155 
	C403.245361,343.783661 402.049957,345.131104 401.214844,346.726929 
z"/>
<path fill="#BDB7A2" opacity="1.000000" stroke="none" 
	d="
M160.933975,336.482849 
	C161.833344,336.451019 162.956909,336.576965 163.141983,337.061462 
	C163.973923,339.239380 164.539352,341.519104 165.449066,344.008423 
	C166.082703,346.926178 166.235550,349.464447 163.136047,349.939941 
	C162.315735,347.281830 161.408066,345.019653 160.958344,342.669830 
	C160.594727,340.769897 160.782745,338.764404 160.933975,336.482849 
z"/>
<path fill="#08363C" opacity="1.000000" stroke="none" 
	d="
M153.705078,338.705566 
	C155.270889,339.360046 156.859665,340.051971 158.448441,340.743896 
	C157.959000,341.439941 157.469543,342.135956 156.980103,342.832001 
	C155.938339,341.688873 154.896576,340.545776 153.754074,339.048157 
	C153.653336,338.693665 153.728043,338.743073 153.705078,338.705566 
z"/>
<path fill="#08363C" opacity="1.000000" stroke="none" 
	d="
M159.328430,345.645294 
	C159.494247,345.336121 159.699463,345.175018 159.904678,345.013916 
	C159.981583,345.274658 160.058487,345.535400 160.135391,345.796143 
	C159.879532,345.795197 159.623672,345.794281 159.328430,345.645294 
z"/>
<path fill="#08363C" opacity="1.000000" stroke="none" 
	d="
M251.017242,348.435059 
	C250.983551,348.171753 251.439972,348.028961 251.672348,347.970947 
	C251.988373,348.617432 252.072037,349.321930 252.155701,350.026398 
	C251.787430,349.583740 251.419189,349.141052 251.017242,348.435059 
z"/>
<path fill="#42544A" opacity="1.000000" stroke="none" 
	d="
M107.898544,347.683228 
	C107.752304,345.585754 107.583084,343.105377 107.645897,340.314819 
	C108.578232,340.450531 109.278542,340.896454 109.421074,340.987244 
	C108.859558,343.280945 108.367561,345.290649 107.898544,347.683228 
z"/>
<path fill="#42544A" opacity="1.000000" stroke="none" 
	d="
M109.756561,348.751465 
	C109.418190,348.792450 108.835396,348.696716 108.093254,348.338867 
	C108.459984,348.256073 108.986061,348.435394 109.756561,348.751465 
z"/>
<path fill="#08363C" opacity="1.000000" stroke="none" 
	d="
M289.022766,336.987671 
	C289.041473,336.971100 289.038086,337.129242 289.004547,337.085449 
	C288.971008,337.041656 289.004059,337.004211 289.022766,336.987671 
z"/>
<path fill="#08363C" opacity="1.000000" stroke="none" 
	d="
M133.915009,339.204987 
	C134.888580,338.885559 135.741882,338.782837 137.011902,338.576965 
	C137.428619,338.473785 137.509201,338.498230 137.521637,338.534851 
	C136.913742,340.855255 136.293427,343.139008 135.673111,345.422729 
	C135.191681,345.468048 134.710266,345.513336 134.228836,345.558624 
	C133.790649,344.569122 133.352478,343.579590 132.860489,342.224060 
	C132.806686,341.858032 132.831512,341.906952 133.058502,341.829102 
	C133.394455,341.128418 133.503433,340.505554 133.612427,339.882721 
	C133.612427,339.882721 133.794739,339.421722 133.915009,339.204987 
z"/>
<path fill="#2B4540" opacity="1.000000" stroke="none" 
	d="
M133.401276,340.065857 
	C133.503433,340.505554 133.394455,341.128418 133.046448,341.808472 
	C132.934982,341.326813 133.062561,340.787933 133.401276,340.065857 
z"/>
<path fill="#243F3C" opacity="1.000000" stroke="none" 
	d="
M396.724518,348.650513 
	C396.375824,348.736450 395.771393,348.694031 394.989136,348.392456 
	C395.363800,348.262909 395.916321,348.392517 396.724518,348.650513 
z"/>
</svg>